<?xml version="1.0" encoding="UTF-8" standalone="no"?>
<svg width="1200px" height="800px" viewBox="0 0 1200 800" version="1.1" xmlns="http://www.w3.org/2000/svg" xmlns:xlink="http://www.w3.org/1999/xlink" xmlns:sketch="http://www.bohemiancoding.com/sketch/ns">
    <!-- Generator: Sketch 3.0.4 (8054) - http://www.bohemiancoding.com/sketch -->
    <title>Desktop</title>
    <desc>Created with Sketch.</desc>
    <defs></defs>
    <g id="Home-page" stroke="none" stroke-width="1" fill="none" fill-rule="evenodd" sketch:type="MSPage">
        <g id="Desktop" sketch:type="MSArtboardGroup">
            <g id="download" sketch:type="MSLayerGroup" transform="translate(-248.000000, -505.000000)">
                <path d="M1200.19059,1255.99444 L1156.29647,1255.99444 L877.882353,1305 L1200.19059,1255.99444 Z" id="Shape" stroke="#499BB9" fill="#499BB9" sketch:type="MSShapeGroup"></path>
                <path d="M1577.68,1305 L1200.19059,1255.99444 L877.882353,1305 L1577.68,1305 Z" id="Shape" stroke="#63AFCE" fill="#63AFCE" sketch:type="MSShapeGroup"></path>
                <path d="M1577.68,1305 L1511.21176,1216.06398 L1313.06118,1226.9541 L1577.68,1305 Z" id="Shape" stroke="#85C7E5" fill="#85C7E5" sketch:type="MSShapeGroup"></path>
                <path d="M1577.68,1305 L1313.06118,1226.9541 L1200.19059,1255.99444 L1577.68,1305 Z" id="Shape" stroke="#76BBD9" fill="#76BBD9" sketch:type="MSShapeGroup"></path>
                <path d="M1599,769.568846 L1336.88941,729.638387 L1462.30118,1014.59666 L1599,769.568846 Z" id="Shape" stroke="#67B1D0" fill="#67B1D0" sketch:type="MSShapeGroup"></path>
                <path d="M1599,653.40751 L1336.88941,729.638387 L1599,655.222531 L1599,653.40751 Z" id="Shape" stroke="#8CCDEF" fill="#8CCDEF" sketch:type="MSShapeGroup"></path>
                <path d="M1599,653.40751 L1422.16941,203.282337 L1336.88941,729.638387 L1599,653.40751 Z" id="Shape" stroke="#54A4C5" fill="#54A4C5" sketch:type="MSShapeGroup"></path>
                <path d="M1599,234.137691 L1422.16941,203.282337 L1599,653.40751 L1599,234.137691 Z" id="Shape" stroke="#4397B6" fill="#4397B6" sketch:type="MSShapeGroup"></path>
                <path d="M1599,673.37274 L1599,655.222531 L1336.88941,729.638387 L1599,673.37274 Z" id="Shape" stroke="#2884A5" fill="#2884A5" sketch:type="MSShapeGroup"></path>
                <path d="M1599,673.37274 L1336.88941,729.638387 L1599,769.568846 L1599,673.37274 Z" id="Shape" stroke="#51A1BE" fill="#51A1BE" sketch:type="MSShapeGroup"></path>
                <path d="M1422.16941,203.282337 L1146.26353,428.344924 L1336.88941,729.638387 L1422.16941,203.282337 Z" id="Shape" stroke="#469AB9" fill="#469AB9" sketch:type="MSShapeGroup"></path>
                <path d="M1462.30118,1014.59666 L1336.88941,729.638387 L1305.53647,796.794159 L1462.30118,1014.59666 Z" id="Shape" stroke="#62AECE" fill="#62AECE" sketch:type="MSShapeGroup"></path>
                <path d="M1511.21176,1216.06398 L1462.30118,1014.59666 L1343.16,1128.94298 L1511.21176,1216.06398 Z" id="Shape" stroke="#7ABFDC" fill="#7ABFDC" sketch:type="MSShapeGroup"></path>
                <path d="M1511.21176,1216.06398 L1343.16,1128.94298 L1313.06118,1226.9541 L1511.21176,1216.06398 Z" id="Shape" stroke="#78BDDA" fill="#78BDDA" sketch:type="MSShapeGroup"></path>
                <path d="M1462.30118,1014.59666 L1305.53647,796.794159 L1343.16,1128.94298 L1462.30118,1014.59666 Z" id="Shape" stroke="#68B1CE" fill="#68B1CE" sketch:type="MSShapeGroup"></path>
                <path d="M1156.29647,1255.99444 L929.301176,1268.69958 L877.882353,1305 L1156.29647,1255.99444 Z" id="Shape" stroke="#4EA1C3" fill="#4EA1C3" sketch:type="MSShapeGroup"></path>
                <path d="M1336.88941,729.638387 L1146.26353,428.344924 L1305.53647,796.794159 L1336.88941,729.638387 Z" id="Shape" stroke="#4B9DBB" fill="#4B9DBB" sketch:type="MSShapeGroup"></path>
                <path d="M1343.16,1128.94298 L1305.53647,796.794159 L1129.96,860.319889 L1343.16,1128.94298 Z" id="Shape" stroke="#5DAAC8" fill="#5DAAC8" sketch:type="MSShapeGroup"></path>
                <path d="M1343.16,1128.94298 L1129.96,860.319889 L1107.38588,922.030598 L1343.16,1128.94298 Z" id="Shape" stroke="#56A4C1" fill="#56A4C1" sketch:type="MSShapeGroup"></path>
                <path d="M1343.16,1128.94298 L1107.38588,922.030598 L1200.19059,1255.99444 L1343.16,1128.94298 Z" id="Shape" stroke="#61ADCD" fill="#61ADCD" sketch:type="MSShapeGroup"></path>
                <path d="M1305.53647,796.794159 L1146.26353,428.344924 L1129.96,860.319889 L1305.53647,796.794159 Z" id="Shape" stroke="#4E9FBE" fill="#4E9FBE" sketch:type="MSShapeGroup"></path>
                <path d="M1343.16,1128.94298 L1200.19059,1255.99444 L1313.06118,1226.9541 L1343.16,1128.94298 Z" id="Shape" stroke="#6BB5D4" fill="#6BB5D4" sketch:type="MSShapeGroup"></path>
                <path d="M1146.26353,428.344924 L990.752941,693.337969 L1129.96,860.319889 L1146.26353,428.344924 Z" id="Shape" stroke="#4598B7" fill="#4598B7" sketch:type="MSShapeGroup"></path>
                <path d="M1156.29647,1255.99444 L1107.38588,922.030598 L1084.81176,945.625869 L1156.29647,1255.99444 Z" id="Shape" stroke="#61ACC8" fill="#61ACC8" sketch:type="MSShapeGroup"></path>
                <path d="M1200.19059,1255.99444 L1107.38588,922.030598 L1156.29647,1255.99444 L1200.19059,1255.99444 Z" id="Shape" stroke="#59A7C5" fill="#59A7C5" sketch:type="MSShapeGroup"></path>
                <path d="M1084.81176,945.625869 L1078.54118,940.180807 L929.301176,1268.69958 L1084.81176,945.625869 Z" id="Shape" stroke="#6DB4CF" fill="#6DB4CF" sketch:type="MSShapeGroup"></path>
                <path d="M1156.29647,1255.99444 L1084.81176,945.625869 L929.301176,1268.69958 L1156.29647,1255.99444 Z" id="Shape" stroke="#52A3C3" fill="#52A3C3" sketch:type="MSShapeGroup"></path>
                <path d="M1146.26353,428.344924 L828.971765,471.905424 L990.752941,693.337969 L1146.26353,428.344924 Z" id="Shape" stroke="#3A92B3" fill="#3A92B3" sketch:type="MSShapeGroup"></path>
                <path d="M1129.96,860.319889 L990.752941,693.337969 L1078.54118,940.180807 L1129.96,860.319889 Z" id="Shape" stroke="#52A5CA" fill="#52A5CA" sketch:type="MSShapeGroup"></path>
                <path d="M1129.96,860.319889 L1078.54118,940.180807 L1107.38588,922.030598 L1129.96,860.319889 Z" id="Shape" stroke="#50A1C1" fill="#50A1C1" sketch:type="MSShapeGroup"></path>
                <path d="M990.752941,693.337969 L828.971765,471.905424 L891.677647,653.40751 L990.752941,693.337969 Z" id="Shape" stroke="#4299BC" fill="#4299BC" sketch:type="MSShapeGroup"></path>
                <path d="M1107.38588,922.030598 L1078.54118,940.180807 L1084.81176,945.625869 L1107.38588,922.030598 Z" id="Shape" stroke="#69B7DE" fill="#69B7DE" sketch:type="MSShapeGroup"></path>
                <path d="M1078.54118,940.180807 L856.562353,1212.43394 L929.301176,1268.69958 L1078.54118,940.180807 Z" id="Shape" stroke="#4DA2C7" fill="#4DA2C7" sketch:type="MSShapeGroup"></path>
                <path d="M1078.54118,940.180807 L990.752941,693.337969 L783.823529,843.984701 L1078.54118,940.180807 Z" id="Shape" stroke="#459ABC" fill="#459ABC" sketch:type="MSShapeGroup"></path>
                <path d="M1078.54118,940.180807 L783.823529,843.984701 L856.562353,1212.43394 L1078.54118,940.180807 Z" id="Shape" stroke="#489DC0" fill="#489DC0" sketch:type="MSShapeGroup"></path>
                <path d="M990.752941,693.337969 L891.677647,653.40751 L783.823529,843.984701 L990.752941,693.337969 Z" id="Shape" stroke="#4096B7" fill="#4096B7" sketch:type="MSShapeGroup"></path>
                <path d="M929.301176,1268.69958 L856.562353,1212.43394 L877.882353,1305 L929.301176,1268.69958 Z" id="Shape" stroke="#4397B6" fill="#4397B6" sketch:type="MSShapeGroup"></path>
                <path d="M891.677647,653.40751 L828.971765,471.905424 L716.101176,716.933241 L891.677647,653.40751 Z" id="Shape" stroke="#3F96B9" fill="#3F96B9" sketch:type="MSShapeGroup"></path>
                <path d="M891.677647,653.40751 L716.101176,716.933241 L783.823529,843.984701 L891.677647,653.40751 Z" id="Shape" stroke="#3C93B4" fill="#3C93B4" sketch:type="MSShapeGroup"></path>
                <path d="M856.562353,1212.43394 L783.823529,843.984701 L605.738824,1232.39917 L856.562353,1212.43394 Z" id="Shape" stroke="#3F96B8" fill="#3F96B8" sketch:type="MSShapeGroup"></path>
                <path d="M877.882353,1305 L856.562353,1212.43394 L816.430588,1305 L877.882353,1305 Z" id="Shape" stroke="#49A0C6" fill="#49A0C6" sketch:type="MSShapeGroup"></path>
                <path d="M798.872941,1305 L605.738824,1232.39917 L520.458824,1305 L798.872941,1305 Z" id="Shape" stroke="#3E96BB" fill="#3E96BB" sketch:type="MSShapeGroup"></path>
                <path d="M856.562353,1212.43394 L605.738824,1232.39917 L798.872941,1305 L856.562353,1212.43394 Z" id="Shape" stroke="#449CC1" fill="#449CC1" sketch:type="MSShapeGroup"></path>
                <path d="M856.562353,1212.43394 L798.872941,1305 L816.430588,1305 L856.562353,1212.43394 Z" id="Shape" stroke="#4C9EBC" fill="#4C9EBC" sketch:type="MSShapeGroup"></path>
                <path d="M828.971765,471.905424 L727.388235,343.038943 L632.075294,618.922114 L828.971765,471.905424 Z" id="Shape" stroke="#328DAE" fill="#328DAE" sketch:type="MSShapeGroup"></path>
                <path d="M828.971765,471.905424 L632.075294,618.922114 L716.101176,716.933241 L828.971765,471.905424 Z" id="Shape" stroke="#358FB2" fill="#358FB2" sketch:type="MSShapeGroup"></path>
                <path d="M783.823529,843.984701 L446.465882,1047.26704 L605.738824,1232.39917 L783.823529,843.984701 Z" id="Shape" stroke="#3C96BB" fill="#3C96BB" sketch:type="MSShapeGroup"></path>
                <path d="M783.823529,843.984701 L716.101176,716.933241 L446.465882,1047.26704 L783.823529,843.984701 Z" id="Shape" stroke="#3E96BA" fill="#3E96BA" sketch:type="MSShapeGroup"></path>
                <path d="M716.101176,716.933241 L561.844706,649.777469 L446.465882,1047.26704 L716.101176,716.933241 Z" id="Shape" stroke="#3691B6" fill="#3691B6" sketch:type="MSShapeGroup"></path>
                <path d="M727.388235,343.038943 L585.672941,357.55911 L632.075294,618.922114 L727.388235,343.038943 Z" id="Shape" stroke="#328DB1" fill="#328DB1" sketch:type="MSShapeGroup"></path>
                <path d="M561.844706,649.777469 L426.4,1009.1516 L446.465882,1047.26704 L561.844706,649.777469 Z" id="Shape" stroke="#3A95BD" fill="#3A95BD" sketch:type="MSShapeGroup"></path>
                <path d="M716.101176,716.933241 L632.075294,618.922114 L561.844706,649.777469 L716.101176,716.933241 Z" id="Shape" stroke="#308AAA" fill="#308AAA" sketch:type="MSShapeGroup"></path>
                <path d="M561.844706,649.777469 L387.522353,958.331015 L426.4,1009.1516 L561.844706,649.777469 Z" id="Shape" stroke="#3492BC" fill="#3492BC" sketch:type="MSShapeGroup"></path>
                <path d="M632.075294,618.922114 L585.672941,357.55911 L561.844706,649.777469 L632.075294,618.922114 Z" id="Shape" stroke="#3892B4" fill="#3892B4" sketch:type="MSShapeGroup"></path>
                <path d="M585.672941,357.55911 L331.087059,528.171071 L561.844706,649.777469 L585.672941,357.55911 Z" id="Shape" stroke="#3591B5" fill="#3591B5" sketch:type="MSShapeGroup"></path>
                <path d="M605.738824,1232.39917 L446.465882,1047.26704 L520.458824,1305 L605.738824,1232.39917 Z" id="Shape" stroke="#409AC2" fill="#409AC2" sketch:type="MSShapeGroup"></path>
                <path d="M585.672941,357.55911 L361.185882,119.791377 L331.087059,528.171071 L585.672941,357.55911 Z" id="Shape" stroke="#2F8BAF" fill="#2F8BAF" sketch:type="MSShapeGroup"></path>
                <path d="M561.844706,649.777469 L331.087059,528.171071 L387.522353,958.331015 L561.844706,649.777469 Z" id="Shape" stroke="#348FB4" fill="#348FB4" sketch:type="MSShapeGroup"></path>
                <path d="M520.458824,1305 L446.465882,1047.26704 L275.905882,1305 L520.458824,1305 Z" id="Shape" stroke="#3F99C1" fill="#3F99C1" sketch:type="MSShapeGroup"></path>
                <path d="M331.087059,528.171071 L214.454118,272.253129 L253.331765,480.980529 L331.087059,528.171071 Z" id="Shape" stroke="#3290B9" fill="#3290B9" sketch:type="MSShapeGroup"></path>
                <path d="M361.185882,119.791377 L214.454118,272.253129 L331.087059,528.171071 L361.185882,119.791377 Z" id="Shape" stroke="#2E8AAE" fill="#2E8AAE" sketch:type="MSShapeGroup"></path>
                <path d="M387.522353,958.331015 L331.087059,528.171071 L209.437647,813.129346 L387.522353,958.331015 Z" id="Shape" stroke="#3592BA" fill="#3592BA" sketch:type="MSShapeGroup"></path>
                <path d="M426.4,1009.1516 L387.522353,958.331015 L275.905882,1305 L426.4,1009.1516 Z" id="Shape" stroke="#3B95BB" fill="#3B95BB" sketch:type="MSShapeGroup"></path>
                <path d="M446.465882,1047.26704 L426.4,1009.1516 L275.905882,1305 L446.465882,1047.26704 Z" id="Shape" stroke="#4099C0" fill="#4099C0" sketch:type="MSShapeGroup"></path>
                <path d="M387.522353,958.331015 L142.969412,1230.58414 L275.905882,1305 L387.522353,958.331015 Z" id="Shape" stroke="#44A0CE" fill="#44A0CE" sketch:type="MSShapeGroup"></path>
                <path d="M387.522353,958.331015 L209.437647,813.129346 L142.969412,1230.58414 L387.522353,958.331015 Z" id="Shape" stroke="#3F9CC7" fill="#3F9CC7" sketch:type="MSShapeGroup"></path>
                <path d="M331.087059,528.171071 L253.331765,480.980529 L209.437647,813.129346 L331.087059,528.171071 Z" id="Shape" stroke="#3591B7" fill="#3591B7" sketch:type="MSShapeGroup"></path>
                <path d="M253.331765,480.980529 L186.863529,461.015299 L209.437647,813.129346 L253.331765,480.980529 Z" id="Shape" stroke="#2D8AAF" fill="#2D8AAF" sketch:type="MSShapeGroup"></path>
                <path d="M275.905882,1305 L142.969412,1230.58414 L173.068235,1305 L275.905882,1305 Z" id="Shape" stroke="#5DB7EC" fill="#5DB7EC" sketch:type="MSShapeGroup"></path>
                <path d="M798.872941,1305 L632.075294,1285.03477 L396.301176,1305 L798.872941,1305 Z" id="Shape" stroke="#568BA5" fill="#568BA5" sketch:type="MSShapeGroup"></path>
                <path d="M1165.07529,1305 L909.235294,1277.77469 L798.872941,1305 L1165.07529,1305 Z" id="Shape" stroke="#6A92A9" fill="#6A92A9" sketch:type="MSShapeGroup"></path>
                <path d="M1599,537.246175 L1532.53176,292.218359 L1349.43059,780.458971 L1599,537.246175 Z" id="Shape" stroke="#6790A6" fill="#6790A6" sketch:type="MSShapeGroup"></path>
                <path d="M1599,800.4242 L1349.43059,780.458971 L1454.77647,972.851182 L1599,800.4242 Z" id="Shape" stroke="#849CAF" fill="#849CAF" sketch:type="MSShapeGroup"></path>
                <path d="M1599,653.40751 L1349.43059,780.458971 L1599,800.4242 L1599,653.40751 Z" id="Shape" stroke="#7696AB" fill="#7696AB" sketch:type="MSShapeGroup"></path>
                <path d="M1599,653.40751 L1599,537.246175 L1349.43059,780.458971 L1599,653.40751 Z" id="Shape" stroke="#6B92A8" fill="#6B92A8" sketch:type="MSShapeGroup"></path>
                <path d="M1532.53176,292.218359 L1186.39529,622.552156 L1349.43059,780.458971 L1532.53176,292.218359 Z" id="Shape" stroke="#6A92A8" fill="#6A92A8" sketch:type="MSShapeGroup"></path>
                <path d="M1448,1305 L1454.77647,972.851182 L1384.54588,965.591099 L1448,1305 Z" id="Shape" stroke="#9FA8B7" fill="#9FA8B7" sketch:type="MSShapeGroup"></path>
                <path d="M1448.00001,1305 L1384.54588,965.591099 L1165.07529,1305 L1448.00001,1305 Z" id="Shape" stroke="#99A4B4" fill="#99A4B4" sketch:type="MSShapeGroup"></path>
                <path d="M1532.53176,292.218359 L1145.00941,259.547983 L1186.39529,622.552156 L1532.53176,292.218359 Z" id="Shape" stroke="#5C8CA4" fill="#5C8CA4" sketch:type="MSShapeGroup"></path>
                <path d="M1384.54588,965.591099 L1251.60941,958.331015 L1165.07529,1305 L1384.54588,965.591099 Z" id="Shape" stroke="#889DAF" fill="#889DAF" sketch:type="MSShapeGroup"></path>
                <path d="M1454.77647,972.851182 L1349.43059,780.458971 L1384.54588,965.591099 L1454.77647,972.851182 Z" id="Shape" stroke="#869DAF" fill="#869DAF" sketch:type="MSShapeGroup"></path>
                <path d="M1384.54588,965.591099 L1313.06118,853.059805 L1251.60941,958.331015 L1384.54588,965.591099 Z" id="Shape" stroke="#869DB0" fill="#869DB0" sketch:type="MSShapeGroup"></path>
                <path d="M1384.54588,965.591099 L1349.43059,780.458971 L1313.06118,853.059805 L1384.54588,965.591099 Z" id="Shape" stroke="#7A97AA" fill="#7A97AA" sketch:type="MSShapeGroup"></path>
                <path d="M1349.43059,780.458971 L1186.39529,622.552156 L1313.06118,853.059805 L1349.43059,780.458971 Z" id="Shape" stroke="#7F9CB0" fill="#7F9CB0" sketch:type="MSShapeGroup"></path>
                <path d="M1313.06118,853.059805 L1186.39529,622.552156 L1251.60941,958.331015 L1313.06118,853.059805 Z" id="Shape" stroke="#6E93A8" fill="#6E93A8" sketch:type="MSShapeGroup"></path>
                <path d="M1251.60941,958.331015 L1037.15529,1119.86787 L1165.07529,1305 L1251.60941,958.331015 Z" id="Shape" stroke="#7F9BAF" fill="#7F9BAF" sketch:type="MSShapeGroup"></path>
                <path d="M1251.60941,958.331015 L1074.77882,900.250348 L1037.15529,1119.86787 L1251.60941,958.331015 Z" id="Shape" stroke="#7295A9" fill="#7295A9" sketch:type="MSShapeGroup"></path>
                <path d="M1251.60941,958.331015 L1186.39529,622.552156 L1074.77882,900.250348 L1251.60941,958.331015 Z" id="Shape" stroke="#6D93A8" fill="#6D93A8" sketch:type="MSShapeGroup"></path>
                <path d="M1186.39529,622.552156 L1145.00941,259.547983 L920.522353,426.529903 L1186.39529,622.552156 Z" id="Shape" stroke="#5C8DA5" fill="#5C8DA5" sketch:type="MSShapeGroup"></path>
                <path d="M1186.39529,622.552156 L920.522353,426.529903 L933.063529,635.257302 L1186.39529,622.552156 Z" id="Shape" stroke="#50879F" fill="#50879F" sketch:type="MSShapeGroup"></path>
                <path d="M1186.39529,622.552156 L933.063529,635.257302 L1074.77882,900.250348 L1186.39529,622.552156 Z" id="Shape" stroke="#5F8DA4" fill="#5F8DA4" sketch:type="MSShapeGroup"></path>
                <path d="M1165.07529,1305 L1037.15529,1119.86787 L909.235294,1277.77469 L1165.07529,1305 Z" id="Shape" stroke="#6F94A9" fill="#6F94A9" sketch:type="MSShapeGroup"></path>
                <path d="M1074.77882,900.250348 L933.063529,635.257302 L963.162353,883.91516 L1074.77882,900.250348 Z" id="Shape" stroke="#6992AA" fill="#6992AA" sketch:type="MSShapeGroup"></path>
                <path d="M1074.77882,900.250348 L979.465882,963.776078 L1037.15529,1119.86787 L1074.77882,900.250348 Z" id="Shape" stroke="#6E94AA" fill="#6E94AA" sketch:type="MSShapeGroup"></path>
                <path d="M1074.77882,900.250348 L963.162353,883.91516 L979.465882,963.776078 L1074.77882,900.250348 Z" id="Shape" stroke="#7598AE" fill="#7598AE" sketch:type="MSShapeGroup"></path>
                <path d="M1037.15529,1119.86787 L979.465882,963.776078 L854.054118,1034.56189 L1037.15529,1119.86787 Z" id="Shape" stroke="#5D8CA3" fill="#5D8CA3" sketch:type="MSShapeGroup"></path>
                <path d="M1037.15529,1119.86787 L854.054118,1034.56189 L909.235294,1277.77469 L1037.15529,1119.86787 Z" id="Shape" stroke="#6590A6" fill="#6590A6" sketch:type="MSShapeGroup"></path>
                <path d="M933.063529,635.257302 L920.522353,426.529903 L864.087059,559.026426 L933.063529,635.257302 Z" id="Shape" stroke="#4E869F" fill="#4E869F" sketch:type="MSShapeGroup"></path>
                <path d="M963.162353,883.91516 L933.063529,635.257302 L787.585882,696.968011 L963.162353,883.91516 Z" id="Shape" stroke="#588BA4" fill="#588BA4" sketch:type="MSShapeGroup"></path>
                <path d="M979.465882,963.776078 L963.162353,883.91516 L854.054118,1034.56189 L979.465882,963.776078 Z" id="Shape" stroke="#6290A8" fill="#6290A8" sketch:type="MSShapeGroup"></path>
                <path d="M963.162353,883.91516 L780.061176,1001.89152 L854.054118,1034.56189 L963.162353,883.91516 Z" id="Shape" stroke="#5B8CA5" fill="#5B8CA5" sketch:type="MSShapeGroup"></path>
                <path d="M963.162353,883.91516 L787.585882,696.968011 L780.061176,1001.89152 L963.162353,883.91516 Z" id="Shape" stroke="#568AA3" fill="#568AA3" sketch:type="MSShapeGroup"></path>
                <path d="M909.235294,1277.77469 L854.054118,1034.56189 L798.872941,1305 L909.235294,1277.77469 Z" id="Shape" stroke="#6490A8" fill="#6490A8" sketch:type="MSShapeGroup"></path>
                <path d="M933.063529,635.257302 L864.087059,559.026426 L787.585882,696.968011 L933.063529,635.257302 Z" id="Shape" stroke="#5C8DA7" fill="#5C8DA7" sketch:type="MSShapeGroup"></path>
                <path d="M920.522353,426.529903 L737.421176,275.883171 L864.087059,559.026426 L920.522353,426.529903 Z" id="Shape" stroke="#45829C" fill="#45829C" sketch:type="MSShapeGroup"></path>
                <path d="M787.585882,696.968011 L668.444706,918.400556 L780.061176,1001.89152 L787.585882,696.968011 Z" id="Shape" stroke="#4E869F" fill="#4E869F" sketch:type="MSShapeGroup"></path>
                <path d="M854.054118,1034.56189 L780.061176,1001.89152 L798.872941,1305 L854.054118,1034.56189 Z" id="Shape" stroke="#6793AD" fill="#6793AD" sketch:type="MSShapeGroup"></path>
                <path d="M864.087059,559.026426 L663.428235,375.709318 L758.741176,666.112656 L864.087059,559.026426 Z" id="Shape" stroke="#5289A3" fill="#5289A3" sketch:type="MSShapeGroup"></path>
                <path d="M864.087059,559.026426 L737.421176,275.883171 L663.428235,375.709318 L864.087059,559.026426 Z" id="Shape" stroke="#5289A4" fill="#5289A4" sketch:type="MSShapeGroup"></path>
                <path d="M864.087059,559.026426 L758.741176,666.112656 L787.585882,696.968011 L864.087059,559.026426 Z" id="Shape" stroke="#51879F" fill="#51879F" sketch:type="MSShapeGroup"></path>
                <path d="M798.872941,1305 L780.061176,1001.89152 L632.075294,1285.03477 L798.872941,1305 Z" id="Shape" stroke="#5B8DA6" fill="#5B8DA6" sketch:type="MSShapeGroup"></path>
                <path d="M780.061176,1001.89152 L615.771765,1003.70654 L632.075294,1285.03477 L780.061176,1001.89152 Z" id="Shape" stroke="#548AA3" fill="#548AA3" sketch:type="MSShapeGroup"></path>
                <path d="M787.585882,696.968011 L758.741176,666.112656 L668.444706,918.400556 L787.585882,696.968011 Z" id="Shape" stroke="#5489A3" fill="#5489A3" sketch:type="MSShapeGroup"></path>
                <path d="M758.741176,666.112656 L663.428235,375.709318 L581.910588,504.5758 L758.741176,666.112656 Z" id="Shape" stroke="#45839E" fill="#45839E" sketch:type="MSShapeGroup"></path>
                <path d="M780.061176,1001.89152 L668.444706,918.400556 L615.771765,1003.70654 L780.061176,1001.89152 Z" id="Shape" stroke="#538AA4" fill="#538AA4" sketch:type="MSShapeGroup"></path>
                <path d="M758.741176,666.112656 L535.508235,637.072323 L668.444706,918.400556 L758.741176,666.112656 Z" id="Shape" stroke="#4A859F" fill="#4A859F" sketch:type="MSShapeGroup"></path>
                <path d="M758.741176,666.112656 L581.910588,504.5758 L535.508235,637.072323 L758.741176,666.112656 Z" id="Shape" stroke="#5088A3" fill="#5088A3" sketch:type="MSShapeGroup"></path>
                <path d="M632.075294,1285.03477 L615.771765,1003.70654 L485.343529,1148.90821 L632.075294,1285.03477 Z" id="Shape" stroke="#588CA7" fill="#588CA7" sketch:type="MSShapeGroup"></path>
                <path d="M668.444706,918.400556 L535.508235,637.072323 L481.581176,771.383866 L668.444706,918.400556 Z" id="Shape" stroke="#4A859F" fill="#4A859F" sketch:type="MSShapeGroup"></path>
                <path d="M668.444706,918.400556 L481.581176,771.383866 L615.771765,1003.70654 L668.444706,918.400556 Z" id="Shape" stroke="#598DA8" fill="#598DA8" sketch:type="MSShapeGroup"></path>
                <path d="M615.771765,1003.70654 L481.581176,771.383866 L435.178824,938.365786 L615.771765,1003.70654 Z" id="Shape" stroke="#46849E" fill="#46849E" sketch:type="MSShapeGroup"></path>
                <path d="M632.075294,1285.03477 L485.343529,1148.90821 L396.301176,1305 L632.075294,1285.03477 Z" id="Shape" stroke="#578CA7" fill="#578CA7" sketch:type="MSShapeGroup"></path>
                <path d="M615.771765,1003.70654 L435.178824,938.365786 L485.343529,1148.90821 L615.771765,1003.70654 Z" id="Shape" stroke="#5289A3" fill="#5289A3" sketch:type="MSShapeGroup"></path>
                <path d="M581.910588,504.5758 L559.336471,364.819193 L486.597647,598.956885 L581.910588,504.5758 Z" id="Shape" stroke="#4F89A5" fill="#4F89A5" sketch:type="MSShapeGroup"></path>
                <path d="M581.910588,504.5758 L486.597647,598.956885 L535.508235,637.072323 L581.910588,504.5758 Z" id="Shape" stroke="#3A7E9A" fill="#3A7E9A" sketch:type="MSShapeGroup"></path>
                <path d="M559.336471,364.819193 L378.743529,604.401947 L486.597647,598.956885 L559.336471,364.819193 Z" id="Shape" stroke="#4684A0" fill="#4684A0" sketch:type="MSShapeGroup"></path>
                <path d="M564.197644,358.466627 L268.381176,112.531293 L378.743529,604.401947 L564.197644,358.466627 Z" id="Shape" stroke="#4684A0" fill="#4F89A3" sketch:type="MSShapeGroup"></path>
                <path d="M485.343529,1148.90821 L435.178824,938.365786 L396.301176,1076.30737 L485.343529,1148.90821 Z" id="Shape" stroke="#4F89A4" fill="#4F89A4" sketch:type="MSShapeGroup"></path>
                <path d="M535.508235,637.072323 L486.597647,598.956885 L481.581176,771.383866 L535.508235,637.072323 Z" id="Shape" stroke="#4885A0" fill="#4885A0" sketch:type="MSShapeGroup"></path>
                <path d="M481.581176,771.383866 L347.390588,771.383866 L435.178824,938.365786 L481.581176,771.383866 Z" id="Shape" stroke="#45839F" fill="#45839F" sketch:type="MSShapeGroup"></path>
                <path d="M481.581176,771.383866 L378.743529,604.401947 L347.390588,771.383866 L481.581176,771.383866 Z" id="Shape" stroke="#4E88A3" fill="#4E88A3" sketch:type="MSShapeGroup"></path>
                <path d="M485.343529,1148.90821 L396.301176,1076.30737 L396.301176,1305 L485.343529,1148.90821 Z" id="Shape" stroke="#538BA6" fill="#538BA6" sketch:type="MSShapeGroup"></path>
                <path d="M486.597647,598.956885 L378.743529,604.401947 L481.581176,771.383866 L486.597647,598.956885 Z" id="Shape" stroke="#40819D" fill="#40819D" sketch:type="MSShapeGroup"></path>
                <path d="M378.743529,604.401947 L268.381176,112.531293 L223.232941,602.586926 L378.743529,604.401947 Z" id="Shape" stroke="#3E819D" fill="#3E819D" sketch:type="MSShapeGroup"></path>
                <path d="M396.301176,1305 L396.301176,1076.30737 L298.48,1143.46314 L396.301176,1305 Z" id="Shape" stroke="#5E91AD" fill="#5E91AD" sketch:type="MSShapeGroup"></path>
                <path d="M435.178824,938.365786 L243.298824,829.464534 L396.301176,1076.30737 L435.178824,938.365786 Z" id="Shape" stroke="#45849F" fill="#45849F" sketch:type="MSShapeGroup"></path>
                <path d="M435.178824,938.365786 L347.390588,771.383866 L243.298824,829.464534 L435.178824,938.365786 Z" id="Shape" stroke="#5A8FAA" fill="#5A8FAA" sketch:type="MSShapeGroup"></path>
                <path d="M268.381176,112.531293 L105.345882,230.50765 L223.232941,602.586926 L268.381176,112.531293 Z" id="Shape" stroke="#40829F" fill="#40829F" sketch:type="MSShapeGroup"></path>
                <path d="M396.301176,1076.30737 L243.298824,829.464534 L274.651765,1116.23783 L396.301176,1076.30737 Z" id="Shape" stroke="#5D91AD" fill="#5D91AD" sketch:type="MSShapeGroup"></path>
                <path d="M396.301176,1305 L298.48,1143.46314 L298.48,1305 L396.301176,1305 Z" id="Shape" stroke="#5289A3" fill="#5289A3" sketch:type="MSShapeGroup"></path>
                <path d="M396.301176,1076.30737 L274.651765,1116.23783 L298.48,1143.46314 L396.301176,1076.30737 Z" id="Shape" stroke="#4484A0" fill="#4484A0" sketch:type="MSShapeGroup"></path>
                <path d="M378.743529,604.401947 L223.232941,602.586926 L347.390588,771.383866 L378.743529,604.401947 Z" id="Shape" stroke="#4D88A4" fill="#4D88A4" sketch:type="MSShapeGroup"></path>
                <path d="M347.390588,771.383866 L223.232941,602.586926 L243.298824,829.464534 L347.390588,771.383866 Z" id="Shape" stroke="#558CA9" fill="#558CA9" sketch:type="MSShapeGroup"></path>
                <path d="M274.651765,1116.23783 L243.298824,829.464534 L117.887059,1056.34214 L274.651765,1116.23783 Z" id="Shape" stroke="#5A8FAC" fill="#5A8FAC" sketch:type="MSShapeGroup"></path>
                <path d="M298.48,1305 L298.48,1143.46314 L274.651765,1116.23783 L298.48,1305 Z" id="Shape" stroke="#5288A0" fill="#5288A0" sketch:type="MSShapeGroup"></path>
                <path d="M298.48,1305 L274.651765,1116.23783 L82.7717647,1305 L298.48,1305 Z" id="Shape" stroke="#759CB8" fill="#759CB8" sketch:type="MSShapeGroup"></path>
                <path d="M274.651765,1116.23783 L117.887059,1056.34214 L82.7717647,1305 L274.651765,1116.23783 Z" id="Shape" stroke="#789DB9" fill="#789DB9" sketch:type="MSShapeGroup"></path>
            </g>
        </g>
    </g>
</svg>