<?xml version="1.0" encoding="UTF-8" standalone="no"?>
<svg width="246px" height="86px" viewBox="0 0 246 86" version="1.1" xmlns="http://www.w3.org/2000/svg" xmlns:xlink="http://www.w3.org/1999/xlink" xmlns:sketch="http://www.bohemiancoding.com/sketch/ns">
    <!-- Generator: Sketch 3.0.4 (8054) - http://www.bohemiancoding.com/sketch -->
    <title>icon_3250 2</title>
    <desc>Created with Sketch.</desc>
    <defs></defs>
    <g id="Home-page" stroke="none" stroke-width="1" fill="none" fill-rule="evenodd" sketch:type="MSPage">
        <g id="Desktop" sketch:type="MSArtboardGroup" transform="translate(-333.000000, -225.000000)">
            <g id="Gusto-Logo-2-+-Write-delicious-web-" sketch:type="MSLayerGroup" transform="translate(328.000000, 135.000000)">
                <g id="Gusto-Logo-2" sketch:type="MSShapeGroup">
                    <g id="icon_3250-2" transform="translate(132.292305, 132.578947) scale(-1, -1) translate(-132.292305, -132.578947) translate(-0.286643, 0.000000)">
                        <g id="Group" transform="translate(131.941171, 132.263230) scale(1, -1) rotate(45.000000) translate(-131.941171, -132.263230) translate(38.888866, 37.563982)">
                            <path d="M184.437473,14.6970646 L186.017573,13.1097396 C187.554251,11.5613077 187.554251,9.02596316 186.017573,7.47996209 L179.463174,0.872995236 C177.926496,-0.675436656 175.407986,-0.675436656 173.873721,0.872995236 L172.298446,2.46032024 L184.437473,14.6970646 Z" id="Shape" fill="#64FFDA"></path>
                            <path d="M170.674923,0.826809669 L106.998099,64.988285 L122.386585,80.4920505 L186.063408,16.3305751 L170.674923,0.826809669 Z" id="Shape-2" fill="#1DE9B6"></path>
                            <path d="M117.629398,79.4735372 C113.603159,88.6450184 81.5138608,161.149066 66.4872304,177.087948 C60.6131182,183.318138 52.5123919,186.159765 44.6094795,185.556922 C49.5427688,183.772701 54.2854812,180.763346 58.4974729,176.516705 C73.5144538,161.382424 109.912238,89.9698149 116.034824,77.8643348 L113.57421,75.38733 C112.54413,76.0485128 111.026751,77.028133 109.089621,78.2775741 C110.334402,76.3304879 111.301761,74.7966409 111.960337,73.758681 L109.572094,71.3546008 C97.869705,77.0670261 31.7443295,109.800439 12.0159971,129.68211 C7.56276867,134.169402 4.47493968,139.247384 2.75251007,144.524692 C1.73931618,136.165105 4.52077464,127.438464 11.0341639,121.205843 C26.8496381,106.064269 98.8032908,73.731942 107.907562,69.670043 L105.89806,67.6476013 C93.3223943,73.2555014 25.091023,104.066136 9.20800256,119.273342 C0.559669006,127.54785 -2.09393404,139.83078 1.38228595,150.557986 C0.139917251,160.179169 3.29770487,169.958355 10.9135456,177.63002 C18.698252,185.479136 28.6709747,188.619754 38.4289968,187.136955 C48.8166465,190.124432 60.4707886,187.348436 68.4098865,178.925647 C83.4992383,162.918702 114.078395,94.165409 119.643724,81.4959789 L117.629398,79.4735372 L117.629398,79.4735372 Z M100.175927,87.2594514 C85.0069673,110.809229 57.6941549,152.434578 48.6357191,161.10288 C43.3502243,166.163846 36.421908,168.849901 29.1317367,168.655436 C26.2779072,168.584942 23.5060982,168.069608 20.8886807,167.15562 C19.9840433,164.51575 19.4726216,161.722739 19.3978382,158.849511 C19.2096737,151.503575 21.8729262,144.519831 26.895473,139.193906 C35.4979716,130.066179 76.8049215,102.546874 100.175927,87.2594514 L100.175927,87.2594514 Z M4.12032182,150.378105 C5.09491784,143.71766 8.35402485,137.149587 13.8904057,131.570856 C31.8480613,113.475838 91.1560893,83.4454959 107.941335,75.1320939 C106.824409,76.8944379 105.386639,79.1429458 103.702807,81.7755231 C81.6851388,96.0881871 34.5450869,127.202674 24.9752294,137.356206 C19.4677969,143.199896 16.5440088,150.856977 16.7490599,158.915143 C16.8093691,161.28033 17.144688,163.589608 17.7212436,165.823531 C14.8915378,164.408794 12.2934192,162.488447 10.0354442,160.101382 C7.3239444,157.225723 5.35786578,153.900362 4.12032182,150.378105 L4.12032182,150.378105 Z M12.7831296,175.748566 C7.18885188,170.109066 4.22646594,163.222554 3.85013678,156.158594 C5.01530975,158.207774 6.4337812,160.15243 8.12002531,161.939082 C11.1644317,165.16721 14.8143421,167.634491 18.823695,169.229109 C20.403795,173.264269 22.8475222,176.939668 26.065619,180.019516 C28.0702955,181.937432 30.272786,183.515034 32.6007196,184.762044 C25.4552903,184.475208 18.4787266,181.482869 12.7831296,175.748566 L12.7831296,175.748566 Z M38.5254915,184.387698 C34.6632928,183.174719 31.0133825,181.081784 27.8869556,178.089445 C25.5204242,175.826353 23.6122424,173.203498 22.2082451,170.339993 C24.4227975,170.92339 26.7217826,171.263705 29.0641904,171.326906 C37.0611851,171.533526 44.6601392,168.587373 50.4618804,163.035381 C60.5359225,153.394752 91.4190372,105.891681 105.625463,83.7080244 C108.269417,81.9870044 110.522567,80.526082 112.27877,79.3933202 C103.408498,96.7931247 70.296357,160.854936 56.6230642,174.630389 C51.2458995,180.051116 44.9423861,183.303553 38.5254915,184.387698 L38.5254915,184.387698 Z" id="Shape" fill="#263238"></path>
                        </g>
                    </g>
                </g>
            </g>
        </g>
    </g>
</svg>